<?xml version="1.0" standalone="no"?>
<!DOCTYPE svg PUBLIC "-//W3C//DTD SVG 20010904//EN"
 "http://www.w3.org/TR/2001/REC-SVG-20010904/DTD/svg10.dtd">
<svg version="1.0" xmlns="http://www.w3.org/2000/svg"
 width="1280.000000pt" height="1345.000000pt" viewBox="0 0 1280.000000 1345.000000"
 preserveAspectRatio="xMidYMid meet">
<metadata>
Created by potrace 1.16, written by Peter Selinger 2001-2019
</metadata>
<g transform="translate(0.000000,1345.000000) scale(0.100000,-0.100000)"
fill="#01695B" stroke="none">
<path d="M1920 7050 l0 -5760 4480 0 4480 0 0 960 0 960 -3840 0 -3840 0 0
1600 0 1600 3840 0 3840 0 0 1920 0 1920 -1280 0 -1280 0 0 1280 0 1280 -3200
0 -3200 0 0 -5760z"/>
<path d="M8960 11847 l0 -967 960 0 c528 0 960 3 960 8 0 4 -432 439 -960 967
l-960 960 0 -968z"/>
<path d="M9920 5770 c-111 -11 -164 -27 -277 -81 -86 -41 -116 -62 -181 -127
-88 -87 -148 -181 -191 -298 -48 -130 -62 -215 -68 -409 -9 -290 18 -452 108
-635 45 -90 65 -117 139 -191 75 -75 100 -94 191 -137 144 -70 227 -87 419
-86 290 1 547 78 698 210 l52 46 0 399 0 399 -395 0 -395 0 0 -165 0 -165 160
0 161 0 -3 -147 -3 -147 -58 -30 c-51 -26 -71 -30 -167 -34 -85 -4 -121 -1
-162 13 -120 39 -197 129 -239 277 -31 113 -40 433 -15 577 41 234 151 359
326 369 176 10 282 -65 324 -231 l13 -52 227 -3 227 -2 -6 47 c-39 281 -190
475 -433 557 -120 41 -307 60 -452 46z"/>
<path d="M8034 5755 c-317 -72 -536 -306 -615 -655 -25 -111 -36 -371 -20
-500 50 -406 265 -680 606 -771 63 -17 110 -22 225 -22 175 -1 240 13 389 85
91 44 116 61 190 137 137 137 213 296 247 514 25 156 15 459 -19 588 -82 310
-272 520 -552 609 -89 29 -353 38 -451 15z m309 -371 c101 -34 183 -142 224
-294 26 -96 26 -516 0 -609 -40 -141 -113 -242 -206 -284 -34 -16 -67 -21
-126 -21 -100 -1 -165 26 -228 93 -92 99 -127 222 -134 471 -8 293 29 456 129
565 62 68 124 94 224 94 40 1 91 -6 117 -15z"/>
<path d="M6080 4790 l0 -960 640 0 640 0 0 180 0 180 -405 0 -405 0 0 780 0
780 -235 0 -235 0 0 -960z"/>
</g>
</svg>
